<svg id="Capa_1" data-name="Capa 1" xmlns="http://www.w3.org/2000/svg" viewBox="0 0 331.35 73.4"><defs><style>.cls-1{fill:#050e1b;}.cls-2{fill:#dbc235;}.cls-3{fill:#681b17;}.cls-4{fill:#de4d40;}.cls-5{fill:#fbc014;}.cls-6{fill:#18c1e4;}.cls-7{fill:#018b9c;}</style></defs><path class="cls-1" d="M75.19,40s-2.94-11.82,8.55-14.48c13.49-3.11,17.06,2.53,18.93,7.36L98.7,34S96,26.86,85.49,29.23c-9.21,2.09-6.13,9.69-6.13,9.69Z" transform="translate(-55.41 -24.6)"/><path class="cls-2" d="M129,63.89A217.81,217.81,0,0,1,67,87.12l-1.48-11.3Z" transform="translate(-55.41 -24.6)"/><path class="cls-3" d="M123.61,44.6a217.81,217.81,0,0,1-62,23.23l-1.48-11.3Z" transform="translate(-55.41 -24.6)"/><path class="cls-4" d="M55.45,44.6l58.26-14.76s5-2.24,6.72,1.87a71.85,71.85,0,0,1,3.18,12.89c0,.56-63.49,12.51-63.49,12.51s-5.23,1.68-4.67-1.87S55.45,44.6,55.45,44.6Z" transform="translate(-55.41 -24.6)"/><path class="cls-5" d="M61.05,63.83l58.26-14.75s5-2.24,6.72,1.86a71.85,71.85,0,0,1,3.18,12.89c0,.56-63.49,12.51-63.49,12.51S60.49,78,61.05,74.47,61.05,63.83,61.05,63.83Z" transform="translate(-55.41 -24.6)"/><path class="cls-6" d="M66.49,83.16l58.26-14.75s5-2.25,6.72,1.86a71.85,71.85,0,0,1,3.18,12.89c0,.56-63.49,12.51-63.49,12.51s-5.23,1.68-4.67-1.87S66.49,83.16,66.49,83.16Z" transform="translate(-55.41 -24.6)"/><polygon class="cls-7" points="48.59 73.4 79.24 58.19 48.59 64.44 48.59 73.4"/><path d="M186.44,64.38h.08l3.24-17.8h9.12l-7.16,28.8h-9.28l-3.32-16.72H179l-3.28,16.72h-9.28l-7.16-28.8h9.12l3.24,17.8h.08l3.44-17.8H183Z" transform="translate(-55.41 -24.6)"/><path d="M208,66.78a4,4,0,0,0,4.12,4.12,3.32,3.32,0,0,0,3.12-1.84h8c-1.44,5.2-6.72,6.92-11.6,6.92-6.72,0-11.92-3.84-11.92-10.88,0-6.88,5.16-11.28,11.88-11.28,7.76,0,12.44,5.36,12.32,13Zm7.56-4.24a3.77,3.77,0,0,0-3.68-3.64c-2.48,0-3.88,1.4-3.88,3.64Z" transform="translate(-55.41 -24.6)"/><path d="M241.84,75.38l-.4-2.24A10.48,10.48,0,0,1,233.56,76c-4,0-7.48-2-7.48-6.32,0-9.52,14.92-5.2,14.92-9.12,0-1.52-1.84-1.72-2.72-1.72-1.16,0-2.72.24-2.92,2h-8c0-4.44,3.16-7,11.44-7,9.92,0,10.52,3.68,10.52,8.68v9.8A2.72,2.72,0,0,0,250.44,75v.4ZM241,66.1c-2.72,1.32-6.32.68-6.32,3.4,0,1,1,1.76,2.64,1.76C240.24,71.26,241.2,69,241,66.1Z" transform="translate(-55.41 -24.6)"/><path d="M253.84,54.42h7.56v4.24h.08c1.16-3.28,3.2-4.84,6.44-4.84a9.91,9.91,0,0,1,1.08.12v8.32a12.7,12.7,0,0,0-1.72-.24c-3.4,0-5.12,1.6-5.12,6.12v7.24h-8.32Z" transform="translate(-55.41 -24.6)"/><path d="M270,75.38l10.32-28.8h9.6l10.32,28.8h-9.4l-1.12-3.8h-9.4l-1.08,3.8Zm15-20.12-2.92,10.32h6Z" transform="translate(-55.41 -24.6)"/><path d="M302.92,75.38V46.58H316.8c8.28,0,12.28,3.8,12.28,9.72,0,6.2-3.68,10.12-12,10.12h-4.76v9ZM316.28,59.7c2.2,0,3.8-.88,3.8-3.36,0-2.68-3-3-5-3h-2.68v6.4Z" transform="translate(-55.41 -24.6)"/><path d="M346.28,75.38l-.4-2.24A10.48,10.48,0,0,1,338,76c-4,0-7.48-2-7.48-6.32,0-9.52,14.92-5.2,14.92-9.12,0-1.52-1.84-1.72-2.72-1.72-1.16,0-2.72.24-2.92,2h-8c0-4.44,3.16-7,11.44-7,9.92,0,10.52,3.68,10.52,8.68v9.8A2.72,2.72,0,0,0,354.88,75v.4Zm-.84-9.28c-2.72,1.32-6.32.68-6.32,3.4,0,1,1,1.76,2.64,1.76C344.68,71.26,345.64,69,345.44,66.1Z" transform="translate(-55.41 -24.6)"/><path d="M358.68,45.82H367v5.92h-8.32Zm0,29.56v-21H367v21Z" transform="translate(-55.41 -24.6)"/><path d="M371.6,54.42h7.56v4.24h.08c1.16-3.28,3.2-4.84,6.44-4.84a9.91,9.91,0,0,1,1.08.12v8.32A12.7,12.7,0,0,0,385,62c-3.4,0-5.12,1.6-5.12,6.12v7.24H371.6Z" transform="translate(-55.41 -24.6)"/></svg>