<svg id="Capa_1" data-name="Capa 1" xmlns="http://www.w3.org/2000/svg" viewBox="0 0 388.82 73.4"><defs><style>.cls-1{fill:#050e1b;}.cls-2{fill:#dbc235;}.cls-3{fill:#681b17;}.cls-4{fill:#de4d40;}.cls-5{fill:#fbc014;}.cls-6{fill:#18c1e4;}.cls-7{fill:#018b9c;}</style></defs><path class="cls-1" d="M75.19,40s-2.94-11.82,8.55-14.48c13.49-3.11,17.06,2.53,18.93,7.36L98.7,34S96,26.86,85.49,29.23c-9.21,2.09-6.13,9.69-6.13,9.69Z" transform="translate(-55.41 -24.6)"/><path class="cls-2" d="M129,63.89A217.81,217.81,0,0,1,67,87.12l-1.48-11.3Z" transform="translate(-55.41 -24.6)"/><path class="cls-3" d="M123.61,44.6a217.81,217.81,0,0,1-62,23.23l-1.48-11.3Z" transform="translate(-55.41 -24.6)"/><path class="cls-4" d="M55.45,44.6l58.26-14.76s5-2.24,6.72,1.87a71.85,71.85,0,0,1,3.18,12.89c0,.56-63.49,12.51-63.49,12.51s-5.23,1.68-4.67-1.87S55.45,44.6,55.45,44.6Z" transform="translate(-55.41 -24.6)"/><path class="cls-5" d="M61.05,63.83l58.26-14.75s5-2.24,6.72,1.86a71.85,71.85,0,0,1,3.18,12.89c0,.56-63.49,12.51-63.49,12.51S60.49,78,61.05,74.47,61.05,63.83,61.05,63.83Z" transform="translate(-55.41 -24.6)"/><path class="cls-6" d="M66.49,83.16l58.26-14.75s5-2.25,6.72,1.86a71.85,71.85,0,0,1,3.18,12.89c0,.56-63.49,12.51-63.49,12.51s-5.23,1.68-4.67-1.87S66.49,83.16,66.49,83.16Z" transform="translate(-55.41 -24.6)"/><polygon class="cls-7" points="48.59 73.4 79.24 58.19 48.59 64.44 48.59 73.4"/><path d="M193.34,67.6h.1l4.06-22.29h11.42l-9,36.07H188.33l-4.16-20.94h-.1L180,81.38H168.34l-9-36.07h11.42l4.06,22.29h.1l4.31-22.29H189Z" transform="translate(-55.41 -24.6)"/><path d="M220.29,70.61a5.06,5.06,0,0,0,5.16,5.16,4.15,4.15,0,0,0,3.91-2.31h10c-1.8,6.51-8.42,8.67-14.53,8.67-8.41,0-14.93-4.81-14.93-13.63,0-8.61,6.47-14.12,14.88-14.12,9.72,0,15.58,6.71,15.43,16.23Zm9.47-5.31a4.72,4.72,0,0,0-4.61-4.56c-3.1,0-4.86,1.75-4.86,4.56Z" transform="translate(-55.41 -24.6)"/><path d="M262.72,81.38l-.5-2.81c-3,2.76-6,3.56-9.86,3.56-5,0-9.37-2.46-9.37-7.92,0-11.92,18.68-6.51,18.68-11.42,0-1.9-2.3-2.15-3.4-2.15-1.46,0-3.41.3-3.66,2.55h-10c0-5.56,4-8.81,14.33-8.81,12.42,0,13.17,4.61,13.17,10.87V77.52c0,1.5.05,2.26,1.41,3.36v.5Zm-1.05-11.62c-3.4,1.65-7.91.85-7.91,4.25,0,1.31,1.25,2.21,3.3,2.21C260.72,76.22,261.92,73.36,261.67,69.76Z" transform="translate(-55.41 -24.6)"/><path d="M277.75,55.13h9.47v5.31h.1c1.46-4.11,4-6.06,8.07-6.06a12.38,12.38,0,0,1,1.35.15V65a15.88,15.88,0,0,0-2.15-.3c-4.26,0-6.42,2-6.42,7.66v9.07H277.75Z" transform="translate(-55.41 -24.6)"/><path d="M297.94,81.38l12.93-36.07h12l12.93,36.07H324l-1.4-4.76H310.87l-1.35,4.76Zm18.84-25.2L313.12,69.1h7.47Z" transform="translate(-55.41 -24.6)"/><path d="M339.23,81.38V45.31h17.38C367,45.31,372,50.07,372,57.48c0,7.77-4.61,12.68-15,12.68h-6V81.38ZM356,61.74c2.75,0,4.76-1.1,4.76-4.21,0-3.35-3.81-3.8-6.32-3.8h-3.35v8Z" transform="translate(-55.41 -24.6)"/><path d="M393.53,81.38l-.5-2.81c-3,2.76-6,3.56-9.87,3.56-5,0-9.37-2.46-9.37-7.92,0-11.92,18.69-6.51,18.69-11.42,0-1.9-2.31-2.15-3.41-2.15-1.45,0-3.4.3-3.65,2.55h-10c0-5.56,4-8.81,14.32-8.81,12.43,0,13.18,4.61,13.18,10.87V77.52c0,1.5.05,2.26,1.4,3.36v.5Zm-1-11.62c-3.41,1.65-7.92.85-7.92,4.25,0,1.31,1.26,2.21,3.31,2.21C391.53,76.22,392.73,73.36,392.48,69.76Z" transform="translate(-55.41 -24.6)"/><path d="M409.06,44.36h10.42v7.41H409.06Zm0,37V55.13h10.42V81.38Z" transform="translate(-55.41 -24.6)"/><path d="M425.24,55.13h9.47v5.31h.1c1.45-4.11,4-6.06,8.07-6.06a12.38,12.38,0,0,1,1.35.15V65a15.88,15.88,0,0,0-2.15-.3c-4.26,0-6.42,2-6.42,7.66v9.07H425.24Z" transform="translate(-55.41 -24.6)"/></svg>