<svg id="Capa_1" data-name="Capa 1" xmlns="http://www.w3.org/2000/svg" viewBox="0 0 389.47 73.4"><defs><style>.cls-1{fill:#050e1b;}.cls-2{fill:#dbc235;}.cls-3{fill:#681b17;}.cls-4{fill:#de4d40;}.cls-5{fill:#fbc014;}.cls-6{fill:#18c1e4;}.cls-7{fill:#018b9c;}.cls-8{font-size:50.1px;font-family:Helvetica-Black, Helvetica Black;font-weight:800;}.cls-9{letter-spacing:-0.02em;}</style></defs><path class="cls-1" d="M75.19,40s-2.94-11.82,8.55-14.48c13.49-3.11,17.06,2.53,18.93,7.36L98.7,34S96,26.86,85.49,29.23c-9.21,2.09-6.13,9.69-6.13,9.69Z" transform="translate(-55.41 -24.6)"/><path class="cls-2" d="M129,63.89A217.81,217.81,0,0,1,67,87.12l-1.48-11.3Z" transform="translate(-55.41 -24.6)"/><path class="cls-3" d="M123.61,44.6a217.81,217.81,0,0,1-62,23.23l-1.48-11.3Z" transform="translate(-55.41 -24.6)"/><path class="cls-4" d="M55.45,44.6l58.26-14.76s5-2.24,6.72,1.87a71.85,71.85,0,0,1,3.18,12.89c0,.56-63.49,12.51-63.49,12.51s-5.23,1.68-4.67-1.87S55.45,44.6,55.45,44.6Z" transform="translate(-55.41 -24.6)"/><path class="cls-5" d="M61.05,63.83l58.26-14.75s5-2.24,6.72,1.86a71.85,71.85,0,0,1,3.18,12.89c0,.56-63.49,12.51-63.49,12.51S60.49,78,61.05,74.47,61.05,63.83,61.05,63.83Z" transform="translate(-55.41 -24.6)"/><path class="cls-6" d="M66.49,83.16l58.26-14.75s5-2.25,6.72,1.86a71.85,71.85,0,0,1,3.18,12.89c0,.56-63.49,12.51-63.49,12.51s-5.23,1.68-4.67-1.87S66.49,83.16,66.49,83.16Z" transform="translate(-55.41 -24.6)"/><polygon class="cls-7" points="48.59 73.4 79.24 58.19 48.59 64.44 48.59 73.4"/><text class="cls-8" transform="translate(103.71 56.78)"><tspan class="cls-9">W</tspan><tspan x="49.2" y="0">earAPair</tspan></text></svg>