<svg id="Capa_1" data-name="Capa 1" xmlns="http://www.w3.org/2000/svg" viewBox="0 0 112.27 104"><defs><style>.cls-1{fill:#050e1b;}.cls-2{fill:#dbc235;}.cls-3{fill:#681b17;}.cls-4{fill:#de4d40;}.cls-5{fill:#fbc014;}.cls-6{fill:#18c1e4;}.cls-7{fill:#018b9c;}</style></defs><path class="cls-1" d="M47.18,44.78S43,28,59.3,24.27c19.11-4.42,24.17,3.58,26.81,10.43l-5.62,1.65S76.62,26.2,61.78,29.57c-13.06,3-8.7,13.72-8.7,13.72Z" transform="translate(-19.15 -23)"/><path class="cls-2" d="M123.41,78.67s-38.32,23-87.9,32.92l-2.1-16Z" transform="translate(-19.15 -23)"/><path class="cls-3" d="M115.78,51.33s-38.32,23-87.9,32.92l-2.1-16Z" transform="translate(-19.15 -23)"/><path class="cls-4" d="M19.21,51.33l82.55-20.9s7.14-3.17,9.52,2.65,4.5,17.46,4.5,18.25S25.83,69.06,25.83,69.06s-7.41,2.38-6.62-2.64S19.21,51.33,19.21,51.33Z" transform="translate(-19.15 -23)"/><path class="cls-5" d="M27.15,78.58l82.54-20.9s7.15-3.17,9.53,2.65,4.5,17.46,4.5,18.25-90,17.73-90,17.73-7.4,2.38-6.61-2.64S27.15,78.58,27.15,78.58Z" transform="translate(-19.15 -23)"/><path class="cls-6" d="M34.86,106l82.54-20.9s7.14-3.18,9.52,2.64,4.5,17.47,4.5,18.26S41.47,123.7,41.47,123.7s-7.41,2.38-6.61-2.65S34.86,106,34.86,106Z" transform="translate(-19.15 -23)"/><polygon class="cls-7" points="68.85 104 112.27 82.44 68.85 91.3 68.85 104"/></svg>