<svg xmlns:xlink="http://www.w3.org/1999/xlink" xmlns="http://www.w3.org/2000/svg" viewBox="0 0 301.70780300999553 64.8" preserveAspectRatio="xMidYMid meet" class="css-grg60t" id="dehecaag" width="301.70780300999553"  height="64.8" ><defs id="SvgjsDefs3900"></defs><g id="SvgjsG3901" featurekey="nameLeftFeature-0" transform="matrix(1.1857364602894713,0,0,1.1857364602894713,-3.8439219532494473,2.7248985478184107)" fill="#203C79"><path d="M4.3555 27.266 c1.2695 -5.4492 2.5391 -10.918 3.8086 -16.367 l11.719 0 c7.0117 0 11.914 3.6328 8.6914 11.582 c-0.82031 1.9727 -1.9141 3.5547 -3.1641 4.7852 l1.7773 0 c-3.0664 2.9492 -7.3047 3.9453 -12.188 3.9453 l-2.0313 8.7695 l-9.7266 0 l2.9297 -12.715 l-1.8164 0 z M16.211 18.145 c-0.41016 1.9141 -0.87891 3.8672 -1.3086 5.8594 c4.8633 -0.25391 6.6797 -5.8594 1.3086 -5.8594 z M42.7394765625 27.344 l-2.9297 12.734 l-9.8828 0 l2.9297 -12.734 l-1.9922 0 l3.8281 -16.484 l9.8633 0 l-3.7891 16.484 l1.9727 0 z M55.361671875 27.266 l2.2266 0 c-0.35156 4.707 2.8516 8.2422 11.875 2.4414 l2.9297 0 l-1.8359 7.9688 c-9.9023 5.7031 -24.59 3.9844 -22.441 -10.41 l-2.207 0 c0.11719 -0.52734 0.23438 -1.1523 0.39063 -1.8359 c1.9922 -8.7305 8.6523 -15.078 17.93 -15.078 c5.1172 0 8.0664 1.4648 9.8242 2.6758 l-1.8945 8.1641 l-3.1445 0 c-7.0703 -7.6172 -13.184 0.15625 -13.652 6.0742 z M94.8191171875 27.344 l5.6641 12.734 l-11.582 0 l-3.6719 -8.8086 l-2.0313 8.8086 l-9.8047 0 l2.9297 -12.734 l-1.9727 0 l3.7695 -16.484 l9.8242 0 l-1.8945 8.2031 c2.5586 -2.7344 5.0586 -5.5078 7.5977 -8.2031 l11.289 0 l-13.32 13.672 l1.1914 2.8125 l2.0117 0 z" fill="#203C79"></path></g><g id="SvgjsG3902" featurekey="inlineSymbolFeature-0" transform="matrix(0.7043478260869566,0,0,0.7043478260869566,129.05919192770253,-2.8173913043478263)" fill="#464F69"><path xmlns="http://www.w3.org/2000/svg" d=" M 50.455 4.001 L 50.455 4.003 L 50.451 4.01 C 39.032 3.731 27.492 12.044 25.504 27.157 C 25.351 28.353 24.34 29.258 23.136 29.265 L 18.719 29.265 C 18.423 29.265 18.24 29.409 18.24 29.766 L 17.977 43.96 C 22.144 52.726 28.854 59.767 36.975 64.363 C 37.041 64.392 37.104 64.44 37.179 64.483 C 48.587 53.767 65.584 48.841 82.242 54.431 L 81.727 29.762 L 81.727 29.696 C 81.727 29.405 81.581 29.248 81.279 29.248 L 76.862 29.248 C 75.742 29.246 74.769 28.476 74.517 27.385 C 70.7 11 60.529 4.245 50.454 4 L 50.455 4.001 Z  M 49.782 8.661 C 59.155 8.676 68.281 15.668 70.004 26.556 C 70.204 27.825 69.226 28.973 67.94 28.977 L 32.06 28.977 C 30.683 28.983 29.682 27.685 30.03 26.353 C 33.149 14.338 41.512 8.654 49.782 8.661 L 49.782 8.661 Z  M 17.762 53.325 L 16.953 95.872 C 17.111 95.92 17.22 95.994 17.485 95.994 L 23.554 95.994 C 23.554 95.755 23.51 95.519 23.51 95.281 L 23.51 95.251 C 23.51 93.841 23.615 92.451 23.776 91.072 C 24.642 82.382 28.264 74.498 33.718 68.098 C 27.45 64.414 21.992 59.397 17.762 53.325 L 17.762 53.325 Z  M 67.234 56.344 C 57.161 56.344 48.025 60.19 41.116 66.451 C 46.774 68.932 52.965 70.297 59.386 70.301 C 67.516 70.291 75.366 67.827 82.376 63.738 L 82.301 59.724 C 77.515 57.687 72.458 56.351 67.246 56.344 L 67.234 56.344 Z  M 82.505 69.509 L 82.486 69.513 C 75.349 73.173 67.438 75.128 59.379 75.135 C 51.682 75.127 44.263 73.363 37.573 70.172 C 37.165 70.654 36.735 71.121 36.35 71.623 C 35.609 72.588 34.915 73.584 34.272 74.61 C 30.409 80.762 28.321 87.919 28.321 95.287 C 28.321 95.522 28.362 95.764 28.364 96 L 82.483 96 C 82.758 96 82.882 95.922 83.047 95.878 L 82.505 69.509 Z " fill-rule="evenodd" fill="#464F69"></path></g><g id="SvgjsG3903" featurekey="nameRightFeature-0" transform="matrix(1.2370283323382159,0,0,1.2370283323382159,209.78832311016706,1.5423667716837848)" fill="#0594FC"><path d="M5.6641 27.266 l-2.2461 0 l9.1797 -16.387 l9.7461 0 l1.582 16.387 l2.1875 0 l1.2305 12.715 l-10.059 0 l-0.41016 -5.4883 l-5.5664 0 c-0.97656 1.8164 -1.8945 3.6523 -2.8711 5.4883 l-9.8828 0 z M16.621 27.676000000000002 l0 -0.41016 l-2.1289 0 l0.039063 -6.4844 l-2.6172 6.4844 l2.168 0 l-0.15625 0.41016 l2.6953 0 z M31.9384640625 27.266 l-1.7969 0 l3.75 -16.367 l9.8047 0 l-3.7891 16.367 l1.8164 0 l-1.2891 5.332 l10.84 0 l-1.6797 7.3828 l-20.605 0 z M54.970690625 27.266 l-1.7969 0 l3.75 -16.367 l9.8047 0 l-3.7891 16.367 l1.8164 0 l-1.2891 5.332 l10.84 0 l-1.6797 7.3828 l-20.605 0 z" fill="#0594FC"></path></g></svg>